<svg width="320" height="322" viewBox="0 0 320 322" fill="none" xmlns="http://www.w3.org/2000/svg">
<g clip-path="url(#clip0_6143_18573)">
<path d="M30.7731 270.691L27.9548 259.563C22.9579 257.442 17.8455 255.606 12.6419 254.062L12.2862 259.234L10.8436 253.536C4.39026 251.689 0 250.877 0 250.877C0 250.877 5.92872 273.453 18.3679 290.713L32.8606 293.262L21.6016 294.887C23.1663 296.772 24.8479 298.556 26.6363 300.23C44.7297 317.044 64.8826 324.758 71.6487 317.46C78.4147 310.162 69.2321 290.616 51.1387 273.804C45.5296 268.591 38.4835 264.408 31.43 261.115L30.7731 270.691Z" fill="#D1E7DD"/>
<path d="M57.575 258.604L60.9079 247.619C57.7253 243.218 54.2972 239.001 50.6401 234.986L47.6654 239.23L49.3718 233.605C44.8003 228.687 41.4617 225.719 41.4617 225.719C41.4617 225.719 34.8821 248.114 36.6178 269.326L47.7084 279.008L37.2291 274.572C37.5958 276.996 38.1143 279.394 38.7817 281.753C45.5895 305.51 58.8582 322.542 68.4181 319.797C77.9779 317.051 80.2094 295.566 73.4016 271.809C71.2914 264.445 67.4188 257.217 63.0809 250.749L57.575 258.604Z" fill="#D1E7DD"/>
<path d="M223.294 76.1227H221.536V27.907C221.536 24.2422 220.815 20.6133 219.414 17.2275C218.013 13.8416 215.96 10.7652 213.372 8.17378C210.783 5.58238 207.71 3.52675 204.328 2.12429C200.946 0.721835 197.322 0 193.661 0H91.6239C84.231 0 77.1409 2.9402 71.9134 8.17378C66.6858 13.4074 63.749 20.5056 63.749 27.907V292.427C63.749 296.092 64.47 299.72 65.8709 303.106C67.2717 306.492 69.325 309.569 71.9134 312.16C74.5018 314.751 77.5747 316.807 80.9567 318.209C84.3386 319.612 87.9633 320.334 91.6239 320.334H193.661C201.054 320.334 208.144 317.393 213.371 312.16C218.599 306.926 221.536 299.828 221.536 292.427V110.444H223.294L223.294 76.1227Z" fill="#212529"/>
<path d="M194.786 7.25781H181.468C182.08 8.76131 182.314 10.3926 182.149 12.0078C181.983 13.6231 181.423 15.1728 180.518 16.5205C179.614 17.8681 178.392 18.9723 176.96 19.7357C175.529 20.4992 173.932 20.8985 172.31 20.8984H113.854C112.232 20.8983 110.635 20.499 109.204 19.7354C107.773 18.9719 106.551 17.8677 105.646 16.5201C104.742 15.1725 104.182 13.6228 104.016 12.0076C103.851 10.3924 104.085 8.76125 104.697 7.25781H92.2571C86.7362 7.25781 81.4414 9.45352 77.5375 13.3619C73.6336 17.2703 71.4404 22.5712 71.4404 28.0985V292.234C71.4404 297.761 73.6336 303.062 77.5375 306.971C81.4414 310.879 86.7362 313.075 92.2571 313.075H194.786C200.307 313.075 205.602 310.879 209.506 306.971C213.409 303.062 215.603 297.761 215.603 292.234V28.0981C215.602 22.5709 213.409 17.2701 209.505 13.3618C205.601 9.45346 200.307 7.25781 194.786 7.25781Z" fill="white"/>
<path d="M130.456 112.476C130.456 110.63 130.942 108.816 131.864 107.217C132.786 105.618 134.113 104.291 135.711 103.369C134.114 102.445 132.302 101.959 130.458 101.959C128.614 101.959 126.803 102.445 125.206 103.368C123.609 104.29 122.283 105.618 121.361 107.217C120.439 108.816 119.953 110.629 119.953 112.475C119.953 114.321 120.439 116.135 121.361 117.734C122.283 119.332 123.609 120.66 125.206 121.583C126.803 122.506 128.614 122.992 130.458 122.992C132.302 122.991 134.114 122.505 135.711 121.582C134.113 120.66 132.787 119.333 131.864 117.734C130.942 116.136 130.456 114.322 130.456 112.476Z" fill="#EA868F"/>
<path d="M143.663 112.476C143.662 110.63 144.148 108.816 145.07 107.217C145.992 105.618 147.319 104.291 148.917 103.369C147.32 102.445 145.509 101.959 143.665 101.959C141.821 101.959 140.009 102.445 138.412 103.368C136.815 104.29 135.489 105.618 134.567 107.217C133.645 108.816 133.159 110.629 133.159 112.475C133.159 114.321 133.645 116.135 134.567 117.734C135.489 119.332 136.815 120.66 138.412 121.583C140.009 122.506 141.821 122.992 143.665 122.992C145.509 122.991 147.32 122.505 148.917 121.582C147.319 120.66 145.993 119.333 145.07 117.734C144.148 116.136 143.662 114.322 143.663 112.476Z" fill="#DC3545"/>
<path d="M156.568 122.992C162.369 122.992 167.072 118.283 167.072 112.475C167.072 106.668 162.369 101.959 156.568 101.959C150.766 101.959 146.063 106.668 146.063 112.475C146.063 118.283 150.766 122.992 156.568 122.992Z" fill="#842029"/>
<path d="M174.122 145.322H112.901C112.319 145.321 111.76 145.089 111.348 144.677C110.936 144.264 110.704 143.705 110.703 143.121V81.83C110.704 81.2465 110.936 80.6871 111.348 80.2745C111.76 79.8619 112.319 79.6298 112.901 79.6292H174.122C174.705 79.6298 175.264 79.8619 175.676 80.2745C176.088 80.6871 176.32 81.2465 176.32 81.83V143.121C176.32 143.705 176.088 144.264 175.676 144.677C175.264 145.089 174.705 145.321 174.122 145.322ZM112.901 80.51C112.552 80.5104 112.217 80.6496 111.969 80.8971C111.722 81.1447 111.583 81.4804 111.583 81.8305V143.122C111.583 143.472 111.722 143.807 111.969 144.055C112.217 144.302 112.552 144.442 112.901 144.442H174.122C174.472 144.442 174.807 144.302 175.054 144.055C175.302 143.807 175.441 143.472 175.441 143.122V81.8305C175.441 81.4804 175.302 81.1447 175.054 80.8971C174.807 80.6496 174.472 80.5104 174.122 80.51H112.901Z" fill="#2C0B0E"/>
<path d="M187.792 192.304H93.8984V193.185H187.792V192.304Z" fill="#ADB5BD"/>
<path d="M96.8637 186.808C98.5013 186.808 99.8289 185.479 99.8289 183.839C99.8289 182.199 98.5013 180.87 96.8637 180.87C95.226 180.87 93.8984 182.199 93.8984 183.839C93.8984 185.479 95.226 186.808 96.8637 186.808Z" fill="#842029"/>
<path d="M187.792 221.989H93.8984V222.87H187.792V221.989Z" fill="#ADB5BD"/>
<path d="M96.8637 216.493C98.5013 216.493 99.8289 215.164 99.8289 213.524C99.8289 211.885 98.5013 210.556 96.8637 210.556C95.226 210.556 93.8984 211.885 93.8984 213.524C93.8984 215.164 95.226 216.493 96.8637 216.493Z" fill="#842029"/>
<path d="M186.074 255.793H156.401C155.888 255.792 155.397 255.588 155.035 255.225C154.672 254.863 154.468 254.371 154.468 253.857V243.445C154.468 242.932 154.672 242.44 155.035 242.077C155.397 241.714 155.888 241.51 156.401 241.51H186.074C186.587 241.51 187.078 241.714 187.44 242.077C187.803 242.44 188.007 242.932 188.007 243.445V253.857C188.007 254.371 187.803 254.863 187.44 255.225C187.078 255.588 186.587 255.792 186.074 255.793Z" fill="#842029"/>
<path d="M106.536 186.808C108.173 186.808 109.501 185.479 109.501 183.839C109.501 182.199 108.173 180.87 106.536 180.87C104.898 180.87 103.57 182.199 103.57 183.839C103.57 185.479 104.898 186.808 106.536 186.808Z" fill="#842029"/>
<path d="M116.208 186.808C117.846 186.808 119.174 185.479 119.174 183.839C119.174 182.199 117.846 180.87 116.208 180.87C114.571 180.87 113.243 182.199 113.243 183.839C113.243 185.479 114.571 186.808 116.208 186.808Z" fill="#842029"/>
<path d="M106.536 216.493C108.173 216.493 109.501 215.164 109.501 213.524C109.501 211.885 108.173 210.556 106.536 210.556C104.898 210.556 103.57 211.885 103.57 213.524C103.57 215.164 104.898 216.493 106.536 216.493Z" fill="#842029"/>
<path d="M116.208 216.493C117.846 216.493 119.174 215.164 119.174 213.524C119.174 211.885 117.846 210.556 116.208 210.556C114.571 210.556 113.243 211.885 113.243 213.524C113.243 215.164 114.571 216.493 116.208 216.493Z" fill="#842029"/>
<path d="M318.805 321.328H10.3456C9.68527 321.328 9.15039 321.093 9.15039 320.804C9.15039 320.515 9.68527 320.28 10.3456 320.28H318.805C319.465 320.28 320 320.514 320 320.804C320 321.093 319.465 321.328 318.805 321.328Z" fill="#3F3D56"/>
<path d="M242.596 210.524C242.806 210.62 243.009 210.734 243.202 210.863L262.471 202.629L263.159 197.547L270.858 197.5L270.403 209.155L244.97 215.889C244.917 216.066 244.852 216.239 244.778 216.409C244.41 217.194 243.819 217.853 243.078 218.303C242.337 218.754 241.48 218.975 240.614 218.939C239.749 218.903 238.913 218.612 238.212 218.102C237.511 217.592 236.976 216.886 236.674 216.073C236.373 215.259 236.318 214.375 236.517 213.531C236.715 212.686 237.159 211.92 237.792 211.327C238.424 210.734 239.218 210.341 240.072 210.199C240.927 210.056 241.805 210.169 242.596 210.524Z" fill="#FFB8B8"/>
<path d="M273.658 316.142H268.391L265.886 295.803L273.659 295.804L273.658 316.142Z" fill="#FFB8B8"/>
<path d="M264.629 314.635H274.787V321.039H258.233C258.233 319.34 258.907 317.712 260.107 316.511C261.306 315.31 262.933 314.636 264.629 314.635Z" fill="#2F2E41"/>
<path d="M294.142 314.653L288.901 315.169L284.415 295.174L292.151 294.411L294.142 314.653Z" fill="#FFB8B8"/>
<path d="M285.009 314.039L295.118 313.042L295.745 319.414L279.271 321.039C279.189 320.202 279.272 319.357 279.516 318.553C279.76 317.748 280.16 316.999 280.692 316.349C281.225 315.699 281.881 315.161 282.621 314.764C283.362 314.368 284.174 314.122 285.009 314.039Z" fill="#2F2E41"/>
<path d="M275.124 175.974C280.952 175.974 285.676 171.245 285.676 165.41C285.676 159.576 280.952 154.846 275.124 154.846C269.296 154.846 264.572 159.576 264.572 165.41C264.572 171.245 269.296 175.974 275.124 175.974Z" fill="#FFB8B8"/>
<path d="M267.214 312.029C266.761 312.03 266.323 311.872 265.976 311.581C265.629 311.29 265.396 310.885 265.317 310.439C262.591 295.288 253.68 245.748 253.467 244.375C253.462 244.344 253.46 244.312 253.46 244.28V240.586C253.46 240.452 253.502 240.321 253.58 240.211L254.757 238.561C254.813 238.481 254.887 238.416 254.972 238.369C255.057 238.322 255.152 238.296 255.249 238.292C261.96 237.977 283.94 237.053 285.002 238.382C286.069 239.716 285.692 243.761 285.605 244.558L285.61 244.641L295.484 307.866C295.562 308.37 295.438 308.885 295.139 309.298C294.84 309.711 294.391 309.99 293.889 310.074L287.721 311.092C287.261 311.166 286.791 311.072 286.395 310.828C285.998 310.584 285.703 310.205 285.562 309.761C283.654 303.659 277.258 283.13 275.041 275.186C275.027 275.136 274.995 275.092 274.952 275.064C274.908 275.035 274.856 275.023 274.804 275.031C274.752 275.038 274.705 275.064 274.671 275.103C274.637 275.143 274.619 275.194 274.619 275.246C274.73 282.818 274.998 302.138 275.09 308.811L275.1 309.529C275.104 310.016 274.926 310.486 274.6 310.847C274.275 311.209 273.826 311.434 273.342 311.48L267.394 312.021C267.334 312.027 267.274 312.029 267.214 312.029Z" fill="#2F2E41"/>
<path d="M268.427 180.128C266.586 181.224 265.484 183.238 264.852 185.288C263.681 189.082 262.976 193.004 262.753 196.969L262.085 208.84L253.812 240.312C260.982 246.385 265.118 245.005 274.769 240.037C284.421 235.069 285.524 241.693 285.524 241.693L287.454 214.915L290.211 185.654C289.592 184.907 288.892 184.233 288.123 183.643C285.574 181.659 282.609 180.28 279.45 179.61C276.292 178.939 273.022 178.996 269.889 179.774L268.427 180.128Z" fill="#842029"/>
<path d="M265.741 216.88C265.963 216.964 266.179 217.065 266.386 217.183L285.438 207.635L285.755 202.463L293.614 201.92L294.035 213.711L268.573 222.141C268.366 223.034 267.891 223.842 267.213 224.458C266.535 225.074 265.686 225.469 264.778 225.591C263.871 225.712 262.948 225.554 262.132 225.137C261.317 224.72 260.647 224.065 260.213 223.258C259.778 222.451 259.6 221.531 259.7 220.62C259.801 219.708 260.176 218.85 260.776 218.157C261.376 217.465 262.173 216.972 263.06 216.744C263.946 216.515 264.882 216.563 265.741 216.88Z" fill="#FFB8B8"/>
<path d="M290.073 185.787C294.761 187.444 295.587 205.389 295.587 205.389C290.072 202.353 283.454 207.322 283.454 207.322C283.454 207.322 282.075 202.629 280.421 196.555C279.921 194.847 279.861 193.04 280.247 191.302C280.633 189.564 281.451 187.953 282.626 186.617C282.626 186.617 285.386 184.13 290.073 185.787Z" fill="#842029"/>
<path d="M284.585 168.204C283.271 167.151 281.477 169.065 281.477 169.065L280.425 159.588C280.425 159.588 273.852 160.376 269.644 159.325C265.437 158.274 264.78 163.142 264.78 163.142C264.563 161.176 264.519 159.194 264.649 157.219C264.911 154.85 268.33 152.481 274.377 150.901C280.425 149.322 283.58 156.166 283.58 156.166C287.788 158.272 285.9 169.257 284.585 168.204Z" fill="#2F2E41"/>
</g>
<defs>
<clipPath id="clip0_6143_18573">
<rect width="320" height="321.328" fill="white"/>
</clipPath>
</defs>
</svg>
