<svg width="423" height="252" viewBox="0 0 423 252" fill="none" xmlns="http://www.w3.org/2000/svg">
<path d="M81.7006 43.7698H350.801C361.901 43.7698 370.901 52.7698 370.901 63.8698V228.17H61.6006V63.9698C61.6006 52.8698 70.6006 43.7698 81.7006 43.7698Z" fill="white"/>
<path d="M370.9 228.87H61.6C61.2 228.87 61 228.57 61 228.27V63.9697C61 52.4697 70.3 43.1697 81.8 43.1697H350.9C362.4 43.1697 371.7 52.4697 371.7 63.9697V228.27C371.6 228.67 371.3 228.87 370.9 228.87ZM62.2 227.67H370.3V63.9697C370.3 53.1697 361.6 44.4697 350.8 44.4697H81.7C70.9 44.4697 62.2 53.1697 62.2 63.9697V227.67Z" fill="#231F20"/>
<path d="M29.4004 228.27H403.1C403.1 240.57 393.1 250.67 380.8 250.67H51.8004C39.4004 250.67 29.4004 240.67 29.4004 228.27Z" fill="white"/>
<path d="M380.7 251.27H51.7002C39.0002 251.27 28.7002 240.97 28.7002 228.27C28.7002 227.87 29.0002 227.67 29.3002 227.67H403C403.4 227.67 403.6 227.97 403.6 228.27C403.8 240.97 393.5 251.27 380.7 251.27ZM30.0002 228.87C30.4002 240.57 40.0002 249.97 51.7002 249.97H380.7C392.4 249.97 402 240.67 402.4 228.87H30.0002Z" fill="#231F20"/>
<path d="M246.6 228.27H186V233.87H246.6V228.27Z" fill="#231F20"/>
<path d="M351.6 60.3696H80.9004V228.27H351.6V60.3696Z" fill="#842029"/>
<path d="M93.6006 77.0696C96.0859 77.0696 98.1006 75.0549 98.1006 72.5696C98.1006 70.0843 96.0859 68.0696 93.6006 68.0696C91.1153 68.0696 89.1006 70.0843 89.1006 72.5696C89.1006 75.0549 91.1153 77.0696 93.6006 77.0696Z" fill="#231F20"/>
<path d="M108.9 77.0696C111.386 77.0696 113.4 75.0549 113.4 72.5696C113.4 70.0843 111.386 68.0696 108.9 68.0696C106.415 68.0696 104.4 70.0843 104.4 72.5696C104.4 75.0549 106.415 77.0696 108.9 77.0696Z" fill="white"/>
<path d="M124.2 77.0696C126.685 77.0696 128.7 75.0549 128.7 72.5696C128.7 70.0843 126.685 68.0696 124.2 68.0696C121.715 68.0696 119.7 70.0843 119.7 72.5696C119.7 75.0549 121.715 77.0696 124.2 77.0696Z" fill="white"/>
<path d="M351.4 84.3697H81.1004C80.7004 84.3697 80.4004 84.0697 80.4004 83.6697C80.4004 83.2697 80.7004 82.9697 81.1004 82.9697H351.4C351.8 82.9697 352.1 83.2697 352.1 83.6697C352.1 84.0697 351.8 84.3697 351.4 84.3697Z" fill="white"/>
<path d="M167.401 141.67C166.801 141.67 166.201 141.47 165.801 140.97C164.901 140.07 164.901 138.57 165.801 137.67L183.401 120.07C184.301 119.17 185.801 119.27 186.701 120.17C187.501 121.07 187.501 122.47 186.701 123.37L169.101 140.97C168.601 141.47 168.001 141.77 167.401 141.67Z" fill="white"/>
<path d="M185.001 141.67C184.401 141.67 183.801 141.47 183.401 140.97L165.801 123.37C164.901 122.47 165.001 120.97 165.901 120.07C166.801 119.27 168.201 119.27 169.101 120.07L186.701 137.67C187.601 138.57 187.601 140.07 186.701 140.97C186.201 141.47 185.601 141.77 185.001 141.67Z" fill="white"/>
<path d="M247.501 141.67C246.901 141.67 246.301 141.47 245.901 140.97C245.001 140.07 245.001 138.57 245.901 137.67L263.501 120.07C264.401 119.17 265.901 119.27 266.801 120.17C267.601 121.07 267.601 122.47 266.801 123.37L249.201 141.07C248.801 141.47 248.101 141.77 247.501 141.67Z" fill="white"/>
<path d="M265.101 141.67C264.501 141.67 263.901 141.47 263.501 140.97L245.901 123.37C245.001 122.47 245.001 120.97 245.901 120.07C246.801 119.17 248.301 119.17 249.201 120.07L266.701 137.67C267.601 138.57 267.601 140.07 266.701 140.97C266.301 141.47 265.701 141.67 265.101 141.67Z" fill="white"/>
<path d="M136.401 181.27C134.801 181.27 133.501 179.97 133.501 178.47C133.501 177.27 134.201 176.27 135.301 175.87C187.001 153.87 245.401 153.87 297.201 175.87C298.601 176.57 299.201 178.27 298.601 179.67C298.001 181.07 296.401 181.67 295.001 181.17C244.701 159.77 187.901 159.77 137.601 181.17C137.201 181.17 136.801 181.27 136.401 181.27Z" fill="white"/>
<path d="M65.9006 44.4697C65.7006 44.4697 65.6006 44.3697 65.5006 44.3697C65.2006 44.1697 65.1006 43.6697 65.3006 43.3697C67.8006 39.9697 70.9006 34.9697 68.6006 30.9697C68.5006 30.8697 68.4006 30.7697 68.4006 30.5697C65.8006 33.6697 62.8006 36.2697 59.4006 38.3697C57.7006 39.4697 55.2006 40.4697 53.2006 40.0697C52.3006 39.8697 51.4006 39.2697 50.9006 38.4697C50.3006 37.2697 50.1006 35.8697 50.5006 34.6697C50.6006 34.1697 50.8006 33.7697 50.9006 33.3697C48.0006 36.2697 44.6006 38.8697 41.0006 40.8697C40.2006 41.3697 39.3006 41.6697 38.4006 41.5697C36.8006 41.2697 35.7006 39.9697 35.5006 38.3697C35.4006 36.9697 35.7006 35.6697 36.3006 34.4697C41.0006 23.7697 52.1006 16.0697 63.7006 15.1697C64.8006 12.5697 64.9006 9.66968 64.2006 6.96968C63.4006 4.26968 61.2006 2.16968 58.5006 1.46968C56.1006 0.969682 53.4006 1.96968 51.2006 2.96968C39.1006 8.46968 29.3006 17.8697 23.2006 29.6697C22.7006 30.3697 22.5006 31.2697 22.5006 32.1697C22.6006 32.5697 22.8006 32.9697 23.1006 33.1697C23.3006 33.2697 23.5006 33.3697 23.7006 33.3697C24.1006 33.2697 24.4006 33.5697 24.5006 33.9697C24.6006 34.3697 24.3006 34.6697 23.9006 34.7697C23.3006 34.8697 22.7006 34.7697 22.2006 34.3697C21.6006 33.8697 21.1006 33.1697 21.1006 32.3697C21.1006 31.1697 21.4006 30.0697 22.0006 29.0697C28.2006 16.9697 38.3006 7.36968 50.7006 1.76968C53.1006 0.669678 56.0006 -0.430321 58.9006 0.169679C62.1006 0.969679 64.7006 3.46968 65.6006 6.66968C66.4006 9.46968 66.3006 12.4697 65.3006 15.2697C66.2006 15.2697 67.1006 15.2697 68.1006 15.2697C69.0006 15.2697 69.9006 15.4697 70.7006 15.9697C72.5006 17.0697 72.6006 19.4697 72.5006 20.8697C72.2006 24.0697 71.1006 27.0697 69.2006 29.5697C69.4006 29.8697 69.6006 30.0697 69.8006 30.3697C72.5006 34.9697 69.2006 40.4697 66.4006 44.2697C66.3006 44.3697 66.1006 44.4697 65.9006 44.4697ZM63.2006 16.7697C52.3006 17.9697 42.1006 25.1697 37.7006 35.1697C37.2006 36.1697 36.9006 37.2697 37.0006 38.3697C37.1006 39.2697 37.7006 40.0697 38.6006 40.2697C39.2006 40.2697 39.9006 40.0697 40.4006 39.6697C46.2006 36.5697 50.8006 31.6697 55.2006 27.0697C58.1006 24.0697 61.3006 20.7697 63.2006 16.7697ZM62.0006 27.8697C61.3006 27.8697 60.6006 27.9697 59.9006 28.0697C56.0006 28.8697 52.7006 31.6697 51.9006 35.0697C51.6006 35.9697 51.7006 36.9697 52.1006 37.8697C52.4006 38.3697 52.9006 38.6697 53.5006 38.7697C55.1006 39.1697 57.3006 38.1697 58.6006 37.2697C61.9006 35.1697 64.9006 32.5697 67.4006 29.5697C65.9006 28.3697 64.0006 27.7697 62.0006 27.8697ZM62.0006 26.4697C64.2006 26.3697 66.4006 27.0697 68.2006 28.4697C69.8006 26.1697 70.8006 23.4697 71.1006 20.6697C71.2006 19.8697 71.2006 17.8697 69.9006 17.0697C69.3006 16.7697 68.6006 16.5697 68.0006 16.6697C66.9006 16.5697 65.8006 16.5697 64.8006 16.6697C62.9006 21.0697 59.6006 24.6697 56.5006 27.8697C57.5006 27.3697 58.5006 26.9697 59.6006 26.7697C60.4006 26.5697 61.2006 26.4697 62.0006 26.4697Z" fill="#D1D3D4"/>
<path d="M10.5999 131.77H98.3999C103.9 131.77 108.3 136.27 108.3 141.67V188.77C108.3 194.27 103.8 198.67 98.3999 198.67H10.5999C5.09988 198.67 0.699877 194.17 0.699877 188.77V141.67C0.599877 136.27 5.09988 131.77 10.5999 131.77Z" fill="white"/>
<path d="M98.3 199.47H10.6C4.7 199.47 0 194.67 0 188.87V141.77C0 135.87 4.8 131.17 10.6 131.17H98.4C104.3 131.17 109 135.97 109 141.77V188.87C109 194.77 104.2 199.47 98.3 199.47ZM10.6 132.47C5.5 132.47 1.4 136.57 1.4 141.67V188.77C1.4 193.87 5.5 197.97 10.6 197.97H98.4C103.5 197.97 107.6 193.87 107.6 188.77V141.67C107.6 136.57 103.5 132.47 98.4 132.47H10.6Z" fill="#D1D3D4"/>
<path d="M35.2998 149.17H39.7998C40.4998 149.17 41.1998 149.27 41.7998 149.47C42.2998 149.67 42.6998 149.87 43.0998 150.27C43.3998 150.57 43.5998 150.97 43.6998 151.37C43.7998 151.77 43.8998 152.17 43.8998 152.47C43.8998 152.87 43.8998 153.27 43.6998 153.67C43.5998 154.07 43.3998 154.47 43.0998 154.77C42.6998 155.07 42.2998 155.37 41.7998 155.57C41.1998 155.77 40.4998 155.87 39.7998 155.87H36.9998V161.07H35.2998V149.17ZM36.9998 154.47H39.2998C39.5998 154.47 39.9998 154.47 40.2998 154.37C40.5998 154.37 40.8998 154.27 41.1998 154.07C41.4998 153.97 41.6998 153.77 41.7998 153.47C41.9998 153.17 41.9998 152.77 41.9998 152.47C41.9998 152.17 41.8998 151.77 41.7998 151.47C41.5998 151.27 41.3998 151.07 41.1998 150.87C40.8998 150.77 40.5998 150.67 40.2998 150.57C39.9998 150.57 39.5998 150.47 39.2998 150.47H36.9998V154.47Z" fill="#231F20"/>
<path d="M45.5998 154.07C46.0998 153.67 46.5998 153.37 47.1998 153.17C47.7998 152.97 48.3998 152.87 48.9998 152.87C49.4998 152.87 50.0998 152.97 50.5998 153.07C50.9998 153.17 51.3998 153.37 51.6998 153.67C51.9998 153.87 52.1998 154.17 52.3998 154.57C52.4998 154.87 52.5998 155.27 52.5998 155.57V159.67C52.5998 159.97 52.5998 160.17 52.5998 160.47C52.5998 160.77 52.5998 160.97 52.6998 161.17H51.1998C51.1998 160.77 51.1998 160.37 51.1998 159.97C50.8998 160.47 50.3998 160.87 49.8998 161.07C49.3998 161.27 48.7998 161.37 48.1998 161.37C47.7998 161.37 47.3998 161.37 47.0998 161.27C46.6998 161.17 46.3998 161.07 46.0998 160.77C45.7998 160.57 45.5998 160.27 45.4998 159.97C45.2998 159.67 45.2998 159.27 45.2998 158.97C45.2998 158.47 45.3998 158.07 45.6998 157.67C45.9998 157.27 46.2998 156.97 46.6998 156.77C47.1998 156.57 47.6998 156.37 48.1998 156.27C48.7998 156.17 49.3998 156.17 49.9998 156.17H51.1998V155.87C51.1998 155.67 51.1998 155.47 51.0998 155.27C50.9998 155.07 50.8998 154.87 50.6998 154.77C50.4998 154.57 50.2998 154.47 50.0998 154.37C49.7998 154.27 49.4998 154.17 49.1998 154.27C48.8998 154.27 48.5998 154.27 48.3998 154.37C48.1998 154.47 47.9998 154.47 47.7998 154.57C47.5998 154.67 47.3998 154.77 47.2998 154.87L46.8998 155.17L45.5998 154.07ZM50.1998 157.27C49.7998 157.27 49.3998 157.27 48.9998 157.37C48.5998 157.37 48.2998 157.47 47.8998 157.57C47.5998 157.67 47.2998 157.87 47.0998 158.07C46.8998 158.27 46.7998 158.57 46.7998 158.87C46.7998 159.27 46.9998 159.67 47.2998 159.87C47.6998 160.07 48.1998 160.17 48.5998 160.17C48.9998 160.17 49.3998 160.07 49.6998 159.97C49.9998 159.87 50.1998 159.67 50.4998 159.47C50.6998 159.27 50.7998 158.97 50.8998 158.67C50.9998 158.37 50.9998 158.17 50.9998 157.87V157.37L50.1998 157.27Z" fill="#231F20"/>
<path d="M63.6 160.97C63.6 161.57 63.5 162.07 63.2 162.67C63 163.17 62.6 163.57 62.2 163.97C61.8 164.37 61.3 164.67 60.7 164.87C60.1 165.07 59.4 165.17 58.8 165.17C58 165.17 57.3 165.07 56.6 164.87C55.9 164.67 55.3 164.27 54.7 163.77L55.8 162.47C56.2 162.87 56.7 163.27 57.2 163.47C57.7 163.67 58.3 163.77 58.9 163.77C59.4 163.77 59.9 163.67 60.4 163.57C60.8 163.47 61.1 163.17 61.3 162.97C61.5 162.67 61.7 162.37 61.8 162.07C61.9 161.77 61.9 161.37 61.9 161.07V159.87C61.6 160.37 61.1 160.67 60.6 160.97C60.1 161.17 59.5 161.27 58.9 161.27C58.3 161.27 57.7 161.17 57.1 160.97C56.6 160.77 56.1 160.47 55.7 160.07C55.3 159.67 55 159.27 54.8 158.77C54.6 158.27 54.5 157.67 54.5 157.17C54.5 156.57 54.6 156.07 54.8 155.57C55 155.07 55.3 154.57 55.7 154.27C56.1 153.87 56.6 153.57 57.1 153.37C57.7 153.17 58.3 153.07 58.9 153.07C59.5 153.07 60.1 153.17 60.6 153.47C61.1 153.67 61.6 154.07 61.9 154.47V153.37H63.5L63.6 160.97ZM59.1 154.27C58.7 154.27 58.3 154.37 57.9 154.47C57.6 154.57 57.3 154.77 57 155.07C56.8 155.27 56.6 155.57 56.4 155.97C56.3 156.37 56.2 156.67 56.2 157.07C56.2 157.77 56.4 158.47 57 158.97C58.2 159.97 59.9 159.97 61.1 158.97C61.6 158.47 61.9 157.77 61.9 157.07C61.9 156.67 61.8 156.27 61.7 155.97C61.6 155.67 61.4 155.37 61.1 155.07C60.8 154.87 60.5 154.67 60.2 154.47C59.9 154.37 59.5 154.27 59.1 154.27Z" fill="#231F20"/>
<path d="M67.3004 157.67C67.3004 157.97 67.4004 158.37 67.5004 158.67C67.7004 158.97 67.9004 159.17 68.1004 159.37C68.4004 159.57 68.7004 159.77 69.0004 159.87C69.4004 159.97 69.7004 160.07 70.1004 160.07C70.6004 160.07 71.0004 159.97 71.4004 159.77C71.8004 159.57 72.1004 159.27 72.4004 158.87L73.6004 159.77C72.7004 160.87 71.3004 161.47 69.8004 161.37C69.2004 161.37 68.6004 161.27 68.0004 161.07C67.0004 160.67 66.1004 159.87 65.7004 158.87C65.5004 158.37 65.4004 157.77 65.4004 157.27C65.4004 156.67 65.5004 156.17 65.7004 155.57C65.9004 155.07 66.2004 154.57 66.6004 154.27C67.0004 153.87 67.5004 153.57 68.0004 153.37C68.6004 153.17 69.2004 153.07 69.8004 153.07C70.5004 153.07 71.1004 153.17 71.7004 153.47C72.2004 153.67 72.6004 154.07 73.0004 154.47C73.3004 154.87 73.6004 155.37 73.7004 155.87C73.8004 156.37 73.9004 156.87 73.9004 157.37V157.87H67.3004V157.67ZM72.4004 156.47C72.4004 156.17 72.3004 155.87 72.2004 155.57C72.1004 155.27 71.9004 155.07 71.7004 154.87C71.5004 154.67 71.2004 154.47 70.9004 154.37C70.6004 154.27 70.2004 154.17 69.8004 154.17C69.4004 154.17 69.0004 154.27 68.7004 154.37C68.4004 154.47 68.1004 154.67 67.9004 154.87C67.7004 155.07 67.5004 155.37 67.4004 155.67C67.3004 155.97 67.2004 156.17 67.2004 156.47H72.4004Z" fill="#231F20"/>
<path d="M11.2998 169.37H13.5998L20.6998 179.17V169.37H22.4998V181.27H20.1998L13.0998 171.47V181.27H11.2998V169.37Z" fill="#231F20"/>
<path d="M24.8996 177.27C24.8996 176.77 24.9996 176.17 25.1996 175.67C25.3996 175.17 25.7996 174.67 26.1996 174.37C26.5996 173.97 27.0996 173.67 27.5996 173.47C28.7996 173.07 29.9996 173.07 31.1996 173.47C31.6996 173.67 32.1996 173.97 32.5996 174.37C32.9996 174.77 33.3996 175.17 33.5996 175.67C33.7996 176.17 33.9996 176.77 33.8996 177.27C33.8996 177.87 33.7996 178.37 33.5996 178.87C33.3996 179.37 32.9996 179.87 32.5996 180.17C32.1996 180.57 31.6996 180.87 31.1996 181.07C29.9996 181.47 28.7996 181.47 27.5996 181.07C27.0996 180.87 26.5996 180.57 26.1996 180.17C25.7996 179.77 25.3996 179.37 25.1996 178.87C24.9996 178.37 24.7996 177.87 24.8996 177.27ZM26.5996 177.27C26.5996 177.67 26.6996 178.07 26.7996 178.37C26.8996 178.67 27.0996 178.97 27.3996 179.27C27.6996 179.47 27.9996 179.67 28.2996 179.87C29.0996 180.17 29.8996 180.17 30.6996 179.87C30.9996 179.77 31.2996 179.57 31.5996 179.27C31.7996 179.07 31.9996 178.77 32.1996 178.37C32.2996 177.97 32.3996 177.67 32.3996 177.27C32.3996 176.87 32.2996 176.47 32.1996 176.17C32.0996 175.87 31.8996 175.57 31.5996 175.27C31.2996 175.07 30.9996 174.87 30.6996 174.67C29.8996 174.37 29.0996 174.37 28.2996 174.67C27.9996 174.77 27.6996 174.97 27.3996 175.27C27.1996 175.47 26.9996 175.77 26.7996 176.17C26.5996 176.47 26.5996 176.87 26.5996 177.27Z" fill="#231F20"/>
<path d="M40.6002 174.57H38.3002V178.17C38.3002 178.37 38.3002 178.57 38.3002 178.87C38.3002 179.07 38.3002 179.27 38.4002 179.47C38.5002 179.67 38.6002 179.77 38.8002 179.87C39.0002 179.97 39.3002 180.07 39.5002 180.07C39.7002 180.07 39.9002 180.07 40.1002 180.07C40.3002 180.07 40.5002 179.97 40.7002 179.87V181.27C40.5002 181.37 40.2002 181.47 39.9002 181.47C39.7002 181.47 39.4002 181.57 39.2002 181.57C38.7002 181.57 38.2002 181.47 37.7002 181.37C37.4002 181.27 37.1002 180.97 36.9002 180.77C36.7002 180.47 36.6002 180.17 36.6002 179.87C36.6002 179.57 36.6002 179.27 36.6002 178.87V174.77H34.7002V173.47H36.6002V171.27H38.2002V173.47H40.5002V174.57H40.6002Z" fill="#231F20"/>
<path d="M48.2002 169.37H56.2002V170.87H49.9002V174.57H55.8002V176.07H49.9002V181.17H48.2002V169.37Z" fill="#231F20"/>
<path d="M57.7002 177.27C57.7002 176.67 57.8002 176.17 58.0002 175.67C58.2002 175.17 58.6002 174.67 59.0002 174.37C59.4002 173.97 59.9002 173.67 60.4002 173.47C61.6002 173.07 62.8002 173.07 64.0002 173.47C64.5002 173.67 65.0002 173.97 65.4002 174.37C65.8002 174.77 66.2002 175.17 66.4002 175.67C66.6002 176.17 66.8002 176.77 66.7002 177.27C66.7002 177.87 66.6002 178.37 66.4002 178.87C66.2002 179.37 65.8002 179.87 65.4002 180.17C65.0002 180.57 64.5002 180.87 64.0002 181.07C62.8002 181.47 61.6002 181.47 60.4002 181.07C59.9002 180.87 59.4002 180.57 59.0002 180.17C58.6002 179.77 58.2002 179.37 58.0002 178.87C57.8002 178.37 57.7002 177.77 57.7002 177.27ZM59.5002 177.27C59.5002 177.67 59.6002 178.07 59.7002 178.37C59.8002 178.67 60.0002 178.97 60.3002 179.27C60.6002 179.47 60.9002 179.67 61.2002 179.87C62.0002 180.17 62.8002 180.17 63.5002 179.87C63.8002 179.77 64.1002 179.57 64.4002 179.27C64.6002 179.07 64.8002 178.77 65.0002 178.37C65.1002 177.97 65.2002 177.67 65.2002 177.27C65.2002 176.87 65.1002 176.47 65.0002 176.17C64.9002 175.87 64.7002 175.57 64.4002 175.27C64.1002 175.07 63.8002 174.87 63.5002 174.67C62.7002 174.37 61.9002 174.37 61.2002 174.67C60.9002 174.77 60.6002 174.97 60.3002 175.27C60.1002 175.47 59.9002 175.77 59.7002 176.17C59.5002 176.47 59.5002 176.87 59.5002 177.27Z" fill="#231F20"/>
<path d="M76.4998 181.27H74.8998V180.07C74.6998 180.47 74.2998 180.87 73.7998 181.07C73.2998 181.37 72.6998 181.47 71.9998 181.47C71.5998 181.47 71.1998 181.37 70.7998 181.27C70.3998 181.17 70.0998 180.97 69.7998 180.77C69.4998 180.47 69.2998 180.17 69.0998 179.77C68.8998 179.37 68.7998 178.87 68.7998 178.37V173.37H70.3998V178.07C70.3998 178.37 70.4998 178.67 70.5998 179.07C70.6998 179.27 70.7998 179.57 70.9998 179.67C71.1998 179.87 71.3998 179.97 71.5998 180.07C71.7998 180.17 72.0998 180.17 72.2998 180.17C72.5998 180.17 72.8998 180.17 73.1998 180.07C73.4998 179.97 73.6998 179.77 73.9998 179.57C74.1998 179.37 74.3998 179.07 74.4998 178.77C74.5998 178.37 74.6998 177.97 74.6998 177.57V173.47H76.2998L76.4998 181.27Z" fill="#231F20"/>
<path d="M79 173.27H80.6V174.47C80.8 174.07 81.2 173.67 81.7 173.47C82.2 173.17 82.9 173.07 83.5 173.07C83.9 173.07 84.3 173.17 84.7 173.27C85.1 173.37 85.4 173.57 85.7 173.77C86 174.07 86.2 174.37 86.4 174.77C86.6 175.17 86.7 175.67 86.6 176.17V181.27H85V176.57C85 176.27 85 175.97 84.8 175.57C84.7 175.37 84.6 175.07 84.4 174.97C84.2 174.77 84 174.67 83.8 174.57C83.6 174.47 83.3 174.47 83.1 174.47C82.8 174.47 82.4 174.47 82.1 174.57C81.8 174.67 81.6 174.87 81.3 175.07C81.1 175.27 80.9 175.57 80.8 175.87C80.7 176.27 80.6 176.67 80.6 177.07V181.17H79V173.27Z" fill="#231F20"/>
<path d="M97.5996 181.27H95.9996V180.17C95.6996 180.57 95.1996 180.97 94.6996 181.17C94.1996 181.37 93.5996 181.47 92.9996 181.57C92.3996 181.57 91.7996 181.47 91.1996 181.27C90.6996 181.07 90.1996 180.77 89.7996 180.37C89.3996 179.97 89.0996 179.57 88.8996 179.07C88.4996 177.97 88.4996 176.87 88.8996 175.77C89.0996 175.27 89.3996 174.87 89.7996 174.47C90.1996 174.07 90.6996 173.77 91.1996 173.57C91.7996 173.37 92.3996 173.27 92.9996 173.27C93.5996 173.27 94.1996 173.37 94.6996 173.67C95.1996 173.87 95.5996 174.27 95.8996 174.67V168.77H97.4996L97.5996 181.27ZM93.1996 180.07C93.5996 180.07 93.9996 179.97 94.3996 179.87C94.6996 179.77 94.9996 179.57 95.2996 179.27C95.4996 179.07 95.6996 178.77 95.8996 178.37C95.9996 177.97 96.0996 177.67 96.0996 177.27C96.0996 176.87 95.9996 176.47 95.8996 176.17C95.7996 175.87 95.5996 175.57 95.2996 175.27C94.9996 175.07 94.6996 174.87 94.3996 174.67C93.5996 174.37 92.7996 174.37 91.9996 174.67C91.6996 174.77 91.3996 174.97 91.0996 175.27C90.8996 175.47 90.6996 175.77 90.4996 176.17C90.3996 176.57 90.2996 176.87 90.2996 177.27C90.2996 177.67 90.3996 178.07 90.4996 178.37C90.5996 178.67 90.7996 178.97 91.0996 179.27C91.3996 179.47 91.6996 179.67 91.9996 179.87C92.3996 179.97 92.7996 180.07 93.1996 180.07Z" fill="#231F20"/>
<path d="M327.7 96.5696H413.8C418.2 96.5696 421.8 100.17 421.8 104.57V134.57C421.8 138.97 418.2 142.57 413.8 142.57H327.7C323.3 142.57 319.7 138.97 319.7 134.57V104.57C319.7 100.17 323.3 96.5696 327.7 96.5696Z" fill="white"/>
<path d="M413.8 143.27H327.7C322.9 143.27 319 139.37 319 134.57V104.57C319 99.7696 322.9 95.8696 327.7 95.8696H413.8C418.6 95.8696 422.5 99.7696 422.5 104.57V134.57C422.5 139.37 418.6 143.27 413.8 143.27ZM327.7 97.2696C323.7 97.2696 320.4 100.57 320.4 104.57V134.57C320.4 138.57 323.7 141.87 327.7 141.87H413.8C417.8 141.87 421.1 138.57 421.1 134.57V104.57C421.1 100.57 417.8 97.2696 413.8 97.2696H327.7Z" fill="#D1D3D4"/>
<path d="M351.2 126.47H339.2V122.27L348.3 108.77H356.2V122.27H359.1V126.47H356.2V130.37H351.2V126.47ZM351.2 122.27V111.97L344.2 122.27H351.2Z" fill="#231F20"/>
<path d="M360.5 119.57C360.5 112.57 364.7 108.37 370.8 108.37C376.9 108.37 381 112.67 381 119.57C381 126.47 376.8 130.77 370.8 130.77C364.8 130.77 360.5 126.57 360.5 119.57ZM376.1 119.57C376.1 114.87 374.1 112.47 370.9 112.47C367.7 112.47 365.6 114.77 365.6 119.57C365.6 124.37 367.6 126.67 370.9 126.67C374.2 126.67 376.1 124.27 376.1 119.57Z" fill="#231F20"/>
<path d="M394.4 126.47H382.3V122.27L391.4 108.77H399.3V122.27H402.2V126.47H399.3V130.37H394.3L394.4 126.47ZM394.4 122.27V111.97H394.3L387.3 122.27H394.4Z" fill="#231F20"/>
<path d="M396.7 228.97H35.7C35.3 228.97 35 228.67 35 228.27C35 227.87 35.3 227.57 35.7 227.57H396.7C397.1 227.57 397.4 227.87 397.4 228.27C397.4 228.67 397.2 228.97 396.7 228.97Z" fill="#231F20"/>
</svg>
