<svg width="320" height="213" viewBox="0 0 320 213" fill="none" xmlns="http://www.w3.org/2000/svg">
<g clip-path="url(#clip0_6143_18545)">
<path d="M114.784 122.576C125.75 103.255 146.669 88.4202 168.813 89.8494C152.479 107.639 142.954 130.642 141.924 154.788C141.56 164.102 142.124 174.499 135.95 181.473C132.108 185.812 126.235 187.914 120.462 188.355C114.687 188.795 108.915 187.751 103.218 186.71L101.836 187.135C101.31 164.917 103.817 141.897 114.784 122.576Z" fill="#D1E7DD"/>
<path d="M168.847 90.3144C152.471 98.2095 138.508 111.395 129.937 127.476C128.084 130.953 126.506 134.641 125.818 138.541C125.129 142.443 125.61 146.157 126.941 149.862C128.157 153.25 129.793 156.574 130.166 160.199C130.559 164.019 129.156 167.592 126.629 170.427C123.537 173.896 119.386 176.046 115.253 178.007C110.664 180.184 105.863 182.373 102.613 186.436C102.219 186.928 101.479 186.288 101.873 185.796C107.527 178.726 117.207 177.397 123.919 171.702C127.051 169.045 129.403 165.426 129.254 161.186C129.125 157.478 127.44 154.049 126.179 150.629C124.855 147.039 124.195 143.429 124.669 139.601C125.155 135.685 126.592 131.927 128.349 128.418C132.309 120.505 137.73 113.24 143.939 106.96C151.076 99.7407 159.393 93.7976 168.53 89.3875C169.096 89.1148 169.409 90.0434 168.847 90.3144Z" fill="white"/>
<path d="M132.447 122.102C129.937 120.264 128.161 117.591 127.436 114.563C126.711 111.534 127.085 108.345 128.491 105.567C128.777 105.006 129.662 105.425 129.375 105.987C128.061 108.572 127.713 111.542 128.394 114.361C129.074 117.18 130.739 119.663 133.087 121.361C133.596 121.73 132.954 122.47 132.447 122.102Z" fill="white"/>
<path d="M126.098 148.226C132.388 147.305 138.101 144.044 142.097 139.092C142.493 138.601 143.233 139.242 142.838 139.732C138.669 144.878 132.717 148.259 126.169 149.203C125.545 149.292 125.477 148.315 126.098 148.226Z" fill="white"/>
<path d="M151.559 100.946C152.382 101.86 153.419 102.555 154.577 102.968C155.735 103.382 156.977 103.501 158.192 103.315C158.815 103.217 158.882 104.195 158.264 104.291C156.92 104.491 155.549 104.358 154.269 103.904C152.988 103.45 151.839 102.689 150.92 101.688C150.825 101.6 150.768 101.481 150.758 101.352C150.749 101.224 150.788 101.097 150.869 100.997C150.954 100.899 151.075 100.839 151.204 100.829C151.333 100.82 151.461 100.862 151.559 100.946Z" fill="white"/>
<path d="M212.874 150.799C212.487 150.871 212.1 150.943 211.709 151.022C206.509 152.016 201.399 153.43 196.428 155.253C196.041 155.387 195.652 155.53 195.27 155.676C183.34 160.194 172.352 166.891 162.864 175.426C159.092 178.826 155.583 182.509 152.368 186.442C147.929 191.874 143.547 198.117 137.746 201.659C137.145 202.035 136.521 202.374 135.879 202.673L102.461 188.791C102.401 188.721 102.337 188.659 102.277 188.589L100.917 188.096C101.069 187.881 101.231 187.662 101.382 187.448C101.47 187.323 101.564 187.201 101.652 187.076C101.713 186.994 101.774 186.912 101.824 186.835C101.844 186.807 101.864 186.78 101.881 186.76C101.931 186.682 101.986 186.616 102.033 186.546C102.934 185.318 103.846 184.095 104.768 182.876C104.771 182.868 104.771 182.868 104.782 182.864C111.83 173.593 119.712 164.83 128.672 157.544C128.942 157.325 129.214 157.098 129.499 156.885C133.556 153.623 137.872 150.699 142.405 148.142C144.892 146.749 147.447 145.484 150.061 144.35C156.821 141.434 163.997 139.601 171.326 138.918C185.937 137.559 200.819 140.896 212.025 150.088C212.311 150.324 212.59 150.556 212.874 150.799Z" fill="#D1E7DD"/>
<path d="M212.623 151.193C194.802 147.622 175.727 149.731 159.216 157.402C155.646 159.061 152.169 161.054 149.275 163.753C146.38 166.453 144.531 169.708 143.366 173.469C142.301 176.908 141.609 180.548 139.728 183.667C137.745 186.955 134.476 188.961 130.754 189.701C126.201 190.607 121.593 189.82 117.115 188.894C112.142 187.865 106.993 186.718 101.955 188.002C101.345 188.158 101.139 187.2 101.749 187.045C110.514 184.81 119.041 189.585 127.824 189.086C131.923 188.853 135.976 187.381 138.406 183.906C140.531 180.867 141.248 177.114 142.297 173.623C143.398 169.957 145.041 166.677 147.721 163.907C150.463 161.073 153.87 158.939 157.381 157.197C165.301 153.266 173.996 150.734 182.729 149.464C192.767 148.003 202.98 148.273 212.927 150.262C213.543 150.385 213.235 151.315 212.623 151.193Z" fill="white"/>
<path d="M164.451 154.625C163.551 151.643 163.74 148.439 164.982 145.583C166.224 142.728 168.439 140.408 171.232 139.037C171.798 138.762 172.252 139.629 171.685 139.905C169.082 141.177 167.019 143.338 165.868 146C164.716 148.661 164.553 151.647 165.407 154.418C165.592 155.021 164.634 155.224 164.451 154.625Z" fill="white"/>
<path d="M143.677 171.655C149.253 174.713 155.775 175.554 161.942 174.01C162.553 173.856 162.759 174.814 162.149 174.967C155.728 176.562 148.942 175.673 143.147 172.478C142.595 172.173 143.128 171.351 143.677 171.655Z" fill="white"/>
<path d="M192.428 149.257C192.536 150.483 192.946 151.663 193.622 152.691C194.298 153.72 195.218 154.564 196.3 155.148C196.856 155.445 196.323 156.267 195.77 155.971C194.578 155.32 193.563 154.387 192.813 153.252C192.064 152.118 191.604 150.817 191.472 149.463C191.449 149.337 191.475 149.206 191.545 149.098C191.614 148.99 191.722 148.913 191.847 148.881C191.974 148.855 192.106 148.879 192.215 148.949C192.323 149.02 192.4 149.13 192.428 149.257Z" fill="white"/>
<path d="M149.215 173.702C144.535 151.039 138.685 143.482 138.685 143.482L136.45 141.747L133.763 139.656L133.776 139.387L133.138 139.17L132.988 139.054L132.743 138.865L132.704 138.907L132.62 138.994L120.458 134.853L105.029 129.604L97.8844 120.304C96.7208 118.789 95.2227 117.564 93.5075 116.727C91.7924 115.889 89.9068 115.46 87.9986 115.474L65.1805 115.643C62.0953 115.666 59.1301 116.844 56.8681 118.946L41.8701 132.879L18.5004 144.057L18.461 144.017L18.2156 144.193L14.6048 145.922L14.7538 146.699L12.5189 148.314C12.5189 148.314 6.6688 155.345 1.98872 176.433C0.798159 181.798 0.212122 193.309 0.000594438 207.493C-0.0100306 208.21 0.121874 208.923 0.388636 209.589C0.655397 210.255 1.0517 210.861 1.55449 211.372C2.05728 211.883 2.65653 212.289 3.3174 212.567C3.97828 212.844 4.68758 212.987 5.40408 212.987H130.226L145.806 212.987C146.522 212.987 147.23 212.844 147.891 212.567C148.551 212.29 149.15 211.884 149.653 211.374C150.156 210.863 150.552 210.258 150.819 209.592C151.086 208.927 151.219 208.215 151.209 207.498C151.003 192.064 150.417 179.521 149.215 173.702Z" fill="#3F3D56"/>
<path d="M165.231 19.7644C160.374 19.7644 155.717 21.6965 152.283 25.1357C148.849 28.5749 146.92 33.2394 146.92 38.1031C146.92 42.9668 148.849 47.6314 152.283 51.0705C155.717 54.5097 160.374 56.4418 165.231 56.4418H301.689C306.546 56.4418 311.203 54.5097 314.637 51.0705C318.071 47.6314 320 42.9668 320 38.1031C320 33.2394 318.071 28.5749 314.637 25.1357C311.203 21.6965 306.546 19.7644 301.689 19.7644H165.231Z" fill="#ADB5BD"/>
<path d="M165.231 23.4758C161.357 23.4758 157.643 25.0169 154.904 27.7601C152.165 30.5032 150.626 34.2237 150.626 38.1031C150.626 41.9825 152.165 45.703 154.904 48.4462C157.643 51.1894 161.357 52.7304 165.231 52.7304H301.69C305.563 52.7304 309.278 51.1894 312.017 48.4462C314.756 45.703 316.295 41.9825 316.295 38.1031C316.295 34.2237 314.756 30.5032 312.017 27.7601C309.278 25.0169 305.563 23.4758 301.69 23.4758H165.231Z" fill="white"/>
<path d="M80.1732 106.889C96.6831 106.889 110.067 93.4847 110.067 76.9495C110.067 60.4144 96.6831 47.01 80.1732 47.01C63.6632 47.01 50.2793 60.4144 50.2793 76.9495C50.2793 93.4847 63.6632 106.889 80.1732 106.889Z" fill="#9E616A"/>
<path d="M72.5256 105.423C72.3979 105.141 72.2706 104.859 72.1436 104.575C72.1925 104.577 72.241 104.584 72.2899 104.585L72.5256 105.423Z" fill="#2F2E41"/>
<path d="M49.4479 48.3715C50.9598 47.1635 52.7269 46.0521 54.66 46.1146C56.5931 46.1769 58.5533 47.9255 58.1528 49.8206C61.7035 43.5242 67.355 38.6816 74.1155 36.1428C80.876 33.6039 88.3133 33.531 95.1221 35.9369C99.9266 37.6346 104.638 41.0308 105.742 46.0122C106.025 47.2909 106.086 48.693 106.883 49.7314C107.888 51.0405 109.811 51.3367 111.395 50.8761C111.411 50.8715 111.427 50.8669 111.442 50.8621C111.71 50.7706 111.999 50.7617 112.271 50.8363C112.544 50.911 112.788 51.0659 112.972 51.281C113.156 51.496 113.271 51.7614 113.302 52.0427C113.334 52.3241 113.281 52.6084 113.149 52.859L111.79 55.3982C113.503 55.7808 115.284 55.7428 116.98 55.2877C117.261 55.2137 117.559 55.2288 117.832 55.3309C118.105 55.4331 118.339 55.6172 118.503 55.8582C118.667 56.0991 118.753 56.385 118.749 56.6766C118.744 56.9683 118.65 57.2514 118.478 57.4871C113.996 63.6508 106.507 67.6309 98.8647 67.5842C93.4331 67.551 87.9456 65.6762 82.6595 66.9271C80.6145 67.4111 78.7036 68.3474 77.0671 69.6675C75.4305 70.9875 74.1098 72.6578 73.2018 74.5557C72.2939 76.4536 71.8217 78.5311 71.82 80.6356C71.8182 82.7401 72.287 84.8183 73.1918 86.7178C71.5678 84.9388 68.4286 85.36 66.7675 87.1042C65.1064 88.8484 64.6763 91.4518 64.8437 93.8563C65.0996 97.5341 66.5384 101 68.0551 104.372C55.3386 103.971 43.3109 95.0373 39.2623 82.9538C35.1968 70.8196 39.4576 56.3532 49.4479 48.3715Z" fill="#2F2E41"/>
<path opacity="0.2" d="M29.4229 166.86L37.8074 212.548L42.8383 212.987L29.4229 166.86Z" fill="black"/>
<path opacity="0.2" d="M121.781 163.414L113.396 212.515L108.365 212.987L121.781 163.414Z" fill="black"/>
<path d="M56.599 32.9951C54.9913 33.6674 53.3138 32.9306 52.6103 31.2433C51.8961 29.5301 52.5632 27.7911 54.1966 27.108C55.8301 26.4248 57.4777 27.1634 58.2035 28.9042C58.9184 30.6189 58.2586 32.3011 56.599 32.9951ZM53.5194 23.7359L52.2412 24.2705C51.9219 24.4025 51.5647 24.4096 51.2404 24.2904C50.9161 24.1713 50.6482 23.9346 50.4898 23.6272L50.4266 23.5033C49.0512 21.0191 48.8938 17.9999 49.961 14.5342C50.9497 11.4254 51.3604 9.23894 50.5345 7.25814C49.5797 4.96796 47.5408 4.25056 44.9407 5.2898C43.9322 5.71153 43.6113 5.70481 42.8177 6.49327C42.6451 6.66686 42.4393 6.80386 42.2127 6.8961C41.9861 6.98833 41.7432 7.03392 41.4986 7.03013C41.2622 7.02734 41.0287 6.97689 40.8121 6.88179C40.5955 6.78668 40.4003 6.64887 40.2381 6.47657C39.9255 6.14453 39.7504 5.70606 39.7481 5.24972C39.7458 4.79337 39.9165 4.35315 40.2257 4.01797C41.5596 2.6195 43.1684 1.51313 44.9507 0.768686C50.5372 -1.5676 53.3495 1.88159 54.6364 4.9683C55.8952 7.98745 55.1871 10.7887 54.0494 14.4166C53.096 17.4312 53.1515 19.665 54.2345 21.886C54.3127 22.0539 54.3562 22.236 54.3624 22.4211C54.3686 22.6063 54.3374 22.7908 54.2706 22.9636C54.2038 23.1364 54.1029 23.2939 53.9738 23.4266C53.8447 23.5593 53.6901 23.6645 53.5194 23.7359Z" fill="#842029"/>
<path d="M195.372 46.8495H168.222C168.136 46.8501 168.05 46.8336 167.97 46.8009C167.89 46.7683 167.818 46.7201 167.757 46.6592C167.695 46.5984 167.647 46.526 167.614 46.4462C167.581 46.3664 167.563 46.2809 167.563 46.1945C167.563 46.1081 167.581 46.0226 167.614 45.9428C167.647 45.8631 167.695 45.7907 167.757 45.7298C167.818 45.6689 167.89 45.6208 167.97 45.5881C168.05 45.5555 168.136 45.539 168.222 45.5396H195.372C195.545 45.5407 195.71 45.6103 195.832 45.733C195.953 45.8557 196.022 46.0216 196.022 46.1945C196.022 46.3675 195.953 46.5334 195.832 46.6561C195.71 46.7788 195.545 46.8483 195.372 46.8495Z" fill="#842029"/>
<path d="M229.814 47.0677H202.664C202.578 47.0683 202.493 47.0518 202.413 47.0192C202.333 46.9865 202.26 46.9384 202.199 46.8775C202.138 46.8166 202.089 46.7442 202.056 46.6645C202.023 46.5847 202.006 46.4992 202.006 46.4128C202.006 46.3264 202.023 46.2409 202.056 46.1611C202.089 46.0814 202.138 46.009 202.199 45.9481C202.26 45.8872 202.333 45.8391 202.413 45.8064C202.493 45.7737 202.578 45.7572 202.664 45.7578H229.814C229.901 45.7572 229.986 45.7737 230.066 45.8064C230.146 45.8391 230.219 45.8872 230.28 45.9481C230.341 46.009 230.39 46.0814 230.423 46.1611C230.456 46.2409 230.473 46.3264 230.473 46.4128C230.473 46.4992 230.456 46.5847 230.423 46.6645C230.39 46.7442 230.341 46.8166 230.28 46.8775C230.219 46.9384 230.146 46.9865 230.066 47.0192C229.986 47.0518 229.901 47.0683 229.814 47.0677Z" fill="#842029"/>
<path d="M264.256 47.286H237.106C236.933 47.2848 236.768 47.2153 236.646 47.0926C236.524 46.9699 236.456 46.804 236.456 46.631C236.456 46.4581 236.524 46.2922 236.646 46.1695C236.768 46.0468 236.933 45.9773 237.106 45.9761H264.256C264.342 45.9755 264.428 45.992 264.507 46.0247C264.587 46.0573 264.66 46.1055 264.721 46.1663C264.782 46.2272 264.831 46.2996 264.864 46.3794C264.897 46.4591 264.914 46.5447 264.914 46.631C264.914 46.7174 264.897 46.803 264.864 46.8827C264.831 46.9625 264.782 47.0349 264.721 47.0958C264.66 47.1566 264.587 47.2048 264.507 47.2374C264.428 47.2701 264.342 47.2866 264.256 47.286Z" fill="#842029"/>
<path d="M298.697 47.5042H271.547C271.374 47.5031 271.209 47.4335 271.087 47.3108C270.966 47.1881 270.897 47.0222 270.897 46.8493C270.897 46.6763 270.966 46.5104 271.087 46.3877C271.209 46.265 271.374 46.1955 271.547 46.1943H298.697C298.87 46.1955 299.035 46.265 299.157 46.3877C299.278 46.5104 299.347 46.6763 299.347 46.8493C299.347 47.0222 299.278 47.1881 299.157 47.3108C299.035 47.4335 298.87 47.5031 298.697 47.5042Z" fill="#842029"/>
<path d="M181.737 40.8217C184.524 40.8217 186.784 38.559 186.784 35.7679C186.784 32.9768 184.524 30.7141 181.737 30.7141C178.951 30.7141 176.691 32.9768 176.691 35.7679C176.691 38.559 178.951 40.8217 181.737 40.8217Z" fill="#842029"/>
<path d="M216.388 40.8217C219.175 40.8217 221.434 38.559 221.434 35.7679C221.434 32.9768 219.175 30.7141 216.388 30.7141C213.601 30.7141 211.342 32.9768 211.342 35.7679C211.342 38.559 213.601 40.8217 216.388 40.8217Z" fill="#842029"/>
<path d="M251.037 40.8217C253.824 40.8217 256.083 38.559 256.083 35.7679C256.083 32.9768 253.824 30.7141 251.037 30.7141C248.25 30.7141 245.991 32.9768 245.991 35.7679C245.991 38.559 248.25 40.8217 251.037 40.8217Z" fill="#842029"/>
<path d="M285.687 40.8217C288.474 40.8217 290.733 38.559 290.733 35.7679C290.733 32.9768 288.474 30.7141 285.687 30.7141C282.9 30.7141 280.641 32.9768 280.641 35.7679C280.641 38.559 282.9 40.8217 285.687 40.8217Z" fill="#842029"/>
</g>
<defs>
<clipPath id="clip0_6143_18545">
<rect width="320" height="212.987" fill="white"/>
</clipPath>
</defs>
</svg>
