<svg width="337" height="408" viewBox="0 0 337 408" fill="none" xmlns="http://www.w3.org/2000/svg">
<rect x="1" y="239.669" width="237" height="237" rx="24" transform="rotate(-45 1 239.669)" fill="#E35D6A"/>
<rect y="217.669" width="237" height="237" rx="24" transform="rotate(-45 0 217.669)" fill="#DC3545"/>
<rect y="193.669" width="237" height="237" rx="24" transform="rotate(-45 0 193.669)" fill="#B02A37"/>
<rect x="0.91568" y="167.584" width="237" height="237" rx="24" transform="rotate(-45 0.91568 167.584)" fill="#842029"/>
<path d="M120.049 120.133C129.568 110.614 145.001 110.614 154.52 120.133L157.967 123.58L123.496 158.052L120.049 154.604C110.53 145.085 110.53 129.652 120.049 120.133ZM164.862 116.686L161.414 113.239C148.088 99.912 126.481 99.912 113.154 113.239C99.8277 126.565 99.8277 148.172 113.154 161.499L116.601 164.946L92.4715 189.076L161.414 258.019C169.03 265.634 181.376 265.634 188.992 258.019L257.934 189.076C265.55 181.461 265.55 169.114 257.934 161.499L188.992 92.5558L164.862 116.686ZM106.26 189.076L188.992 106.344L251.04 168.393C254.848 172.201 254.848 178.374 251.04 182.182L182.097 251.125C178.29 254.932 172.116 254.932 168.309 251.125L106.26 189.076Z" fill="white"/>
<path d="M185.76 167.747C184.927 166.914 184.927 165.563 185.76 164.73L188.776 161.714C189.609 160.881 190.959 160.881 191.792 161.714L194.809 164.73C195.641 165.563 195.641 166.914 194.809 167.747L191.792 170.763C190.959 171.596 189.609 171.596 188.776 170.763L185.76 167.747Z" fill="white"/>
<path d="M176.711 176.795C175.878 175.962 175.878 174.612 176.711 173.779L179.727 170.763C180.56 169.93 181.911 169.93 182.744 170.763L185.76 173.779C186.593 174.612 186.593 175.962 185.76 176.795L182.744 179.812C181.911 180.645 180.56 180.645 179.727 179.812L176.711 176.795Z" fill="white"/>
<path d="M170.679 200.925C169.846 200.092 169.846 198.742 170.679 197.909L173.695 194.893C174.528 194.06 175.878 194.06 176.711 194.893L179.727 197.909C180.56 198.742 180.56 200.092 179.727 200.925L176.711 203.942C175.878 204.775 174.528 204.775 173.695 203.942L170.679 200.925Z" fill="white"/>
<path d="M179.727 191.877C178.894 191.044 178.894 189.693 179.727 188.86L182.744 185.844C183.576 185.011 184.927 185.011 185.76 185.844L188.776 188.86C189.609 189.693 189.609 191.044 188.776 191.877L185.76 194.893C184.927 195.726 183.576 195.726 182.744 194.893L179.727 191.877Z" fill="white"/>
<path d="M143.532 170.763C144.365 169.93 145.716 169.93 146.549 170.763L148.057 172.271L172.187 148.141L170.679 146.633C169.846 145.8 169.846 144.45 170.679 143.617C171.511 142.784 172.862 142.784 173.695 143.617L175.203 145.125L178.219 142.108C181.551 138.777 186.953 138.777 190.284 142.108L223.463 175.287C226.795 178.619 226.795 184.021 223.463 187.352L187.268 223.547C183.936 226.879 178.535 226.879 175.203 223.547L142.024 190.369C138.693 187.037 138.692 181.635 142.024 178.304L145.04 175.287L143.532 173.779C142.699 172.946 142.699 171.596 143.532 170.763ZM148.057 190.369L178.219 220.531C179.885 222.197 182.586 222.197 184.252 220.531L220.447 184.336C222.113 182.67 222.113 179.969 220.447 178.304L190.284 148.141L148.057 190.369Z" fill="white"/>
</svg>
